<?xml version="1.0" encoding="iso-8859-1"?>
<!-- Uploaded to: SVG Repo, www.svgrepo.com, Generator: SVG Repo Mixer Tools -->
<svg fill="#000000" version="1.1" id="Layer_1" xmlns="http://www.w3.org/2000/svg" xmlns:xlink="http://www.w3.org/1999/xlink" 
	 viewBox="0 0 512 512" xml:space="preserve">
<g>
	<g>
		<path d="M256,0C114.842,0,0,114.842,0,256s114.842,256,256,256s256-114.842,256-256S397.158,0,256,0z M427.537,409.429
			l-35.772-35.772l-18.099,18.099l35.772,35.772C368.674,464.026,315.017,486.4,256,486.4s-112.674-22.374-153.438-58.863
			l35.772-35.772l-18.099-18.099l-35.772,35.763C50.645,371.652,29.218,322.748,26.249,268.8H76.8v-25.6H26.249
			c2.97-53.948,24.405-102.852,58.223-140.638l35.772,35.772l18.099-18.099l-35.772-35.772
			c37.777-33.818,86.682-55.245,140.629-58.214V76.8h25.6V26.249c53.948,2.97,102.852,24.405,140.638,58.223l-35.772,35.772
			l18.099,18.099l35.772-35.772c33.818,37.777,55.245,86.682,58.223,140.638H435.2v25.6h50.551
			C482.782,322.748,461.355,371.652,427.537,409.429z"/>
	</g>
</g>
<g>
	<g>
		<path d="M268.8,271.155V153.6h-25.6v117.555c-14.865,5.299-25.6,19.379-25.6,36.045c0,21.171,17.229,38.4,38.4,38.4
			s38.4-17.229,38.4-38.4C294.4,290.534,283.665,276.463,268.8,271.155z M256,320c-7.066,0-12.8-5.734-12.8-12.8
			s5.734-12.8,12.8-12.8c7.066,0,12.8,5.734,12.8,12.8S263.066,320,256,320z"/>
	</g>
</g>
<g>
	<g>
		<rect x="192" y="409.6" width="128" height="25.6"/>
	</g>
</g>
</svg>